<?xml version="1.0" encoding="UTF-8"?>
<svg id="P1" xmlns="http://www.w3.org/2000/svg" viewBox="0 0 32 32">
  <defs>
    <style>
      .cls-1 {
        fill: #d0ffe9;
        stroke-width: 0px;
      }
    </style>
  </defs>
  <path class="cls-1" d="m10.77,23.46h-4.05v-12.14h4.05v12.14Zm-2.02-13.84c-.56,0-1.09-.22-1.49-.62-.39-.39-.62-.93-.62-1.49s.22-1.09.62-1.49c.39-.39.93-.62,1.49-.62.3-.03.6,0,.88.09.28.09.55.24.77.44.22.2.4.44.52.71.12.27.18.57.18.87s-.06.59-.18.87c-.12.27-.3.52-.52.71-.22.2-.48.35-.77.44-.28.09-.58.12-.88.09Zm16.61,13.84h-4.05v-6.51c0-1.63-.58-2.7-2.05-2.7-.45,0-.9.15-1.27.41-.37.26-.65.63-.81,1.06-.11.32-.15.65-.13.98v6.74h-4.05v-12.14h4.05v1.71c.37-.64.9-1.16,1.55-1.52.64-.36,1.37-.53,2.11-.5,2.7,0,4.65,1.74,4.65,5.48v6.99Z"/>
</svg>