<svg width="1318" height="376" viewBox="0 0 1318 376" fill="none" xmlns="http://www.w3.org/2000/svg">
<g clip-path="url(#clip0_8_2)">
<mask id="mask0_8_2" style="mask-type:luminance" maskUnits="userSpaceOnUse" x="0" y="0" width="1512" height="376">
<path d="M1512 0H0V376H1512V0Z" fill="white"/>
</mask>
<g mask="url(#mask0_8_2)">
<g opacity="0.3">
<mask id="mask1_8_2" style="mask-type:luminance" maskUnits="userSpaceOnUse" x="-428" y="-995" width="2256" height="2289">
<path d="M1827.17 -99.2817L849.772 -995L-427.002 398.199L550.393 1293.92L1827.17 -99.2817Z" fill="white"/>
</mask>
<g mask="url(#mask1_8_2)">
<path d="M62.2881 846.596C-19.5249 771.62 -80.4019 678.735 -114.253 575.151C-139.622 497.525 -149.59 415.828 -143.916 332.3C-138.021 245.898 -115.449 159.399 -76.8029 75.2043C33.0531 -152.611 252.452 -350.551 510.133 -454.415C655.893 -513.16 809.4 -541.13 966.346 -537.509C1140.59 -533.508 1316.27 -490.307 1488.48 -409.122C1491.04 -407.928 1492.89 -405.569 1493.42 -402.791C1493.96 -400.029 1493.16 -397.146 1491.25 -395.064L1267.85 -151.092C1265.35 -148.371 1261.41 -147.46 1257.98 -148.852C1131.29 -199.572 988.481 -216.84 843.4 -199.183C886.805 -171.349 986.401 -99.9807 1064.12 12.4079C1124.06 99.133 1159.57 192.951 1169.63 291.294C1182.19 414.03 1154.9 543.949 1088.51 677.446C1088.45 677.543 1088.42 677.639 1088.36 677.736C1004.62 831.802 865.613 944.325 696.963 994.578C615.108 1018.97 530.838 1027.3 446.47 1019.32C359.132 1011.09 275.64 985.662 198.307 943.774C148.358 916.335 102.774 883.639 62.3011 846.549L62.2881 846.596ZM1469.95 -398.148C1303.5 -474.957 1133.99 -515.879 965.925 -519.739C811.405 -523.309 660.287 -495.773 516.769 -437.929C263.094 -335.671 47.2041 -141.001 -60.7039 82.7801C-98.3719 164.855 -120.438 249.255 -126.159 333.493C-131.697 414.733 -121.985 494.175 -97.3409 569.598C-72.9529 644.214 -34.6139 712.855 16.5851 773.649C68.6471 835.445 132.651 887.435 206.801 928.155C355.712 1008.8 527.995 1026.35 691.86 977.505C855.926 928.601 991.152 819.186 1072.64 669.357C1137.38 539.111 1164.06 412.649 1151.96 293.465C1142.3 198.205 1107.94 107.217 1049.83 23.0237C950.519 -120.951 814.405 -196.109 813.035 -196.852C809.682 -198.689 807.849 -202.449 808.535 -206.224C809.22 -209.999 812.193 -212.914 815.993 -213.473C970.486 -236.498 1123.45 -220.664 1258.88 -167.697L1469.98 -398.212L1469.95 -398.148Z" fill="#D0FFE9"/>
<path d="M97.7127 806.921C3.75306 720.813 -58.2909 610.543 -81.6819 488.074C-105.864 361.533 -87.4639 226.635 -28.5049 97.9631C20.7151 -3.92452 95.6345 -102.92 188.23 -188.491C236.608 -233.185 289.546 -274.002 345.583 -309.777C404.055 -347.121 466.142 -379.131 530.091 -404.911C669.091 -460.953 815.448 -487.605 965.132 -484.154C1109.08 -480.832 1254.89 -449.326 1398.49 -390.468C1401.18 -389.358 1403.17 -387.022 1403.8 -384.185C1404.43 -381.348 1403.65 -378.387 1401.68 -376.239L1252.83 -213.684C1250.42 -211.062 1246.7 -210.128 1243.33 -211.288C1109.96 -257.813 960.794 -270.744 811.952 -248.753C793.36 -246.006 778.092 -232.373 773.979 -214.82C770.303 -199.159 775.349 -182.682 787.167 -171.851C789.823 -169.417 792.779 -167.311 795.971 -165.562C796.535 -165.256 851.7 -134.787 915.892 -75.9599C955.003 -40.1168 989.303 -1.29419 1017.83 39.3853C1053.25 89.9145 1079.78 143.476 1096.64 198.528C1139.67 338.993 1121 491.859 1041.17 652.852C1041.11 652.949 1041.06 653.061 1041.01 653.158C1002.16 724.378 950.456 785.993 887.37 836.238C826.231 884.951 757.035 921.032 681.689 943.485C606.436 965.903 528.983 973.576 451.458 966.256C371.356 958.686 294.772 935.398 223.838 896.992C177.612 871.578 135.186 841.293 97.714 806.953L97.7127 806.921ZM1379.9 -378.799C1242.15 -433.742 1102.52 -463.203 964.711 -466.385C817.469 -469.768 673.486 -443.535 536.727 -388.425C473.783 -363.05 412.68 -331.556 355.128 -294.786C299.995 -259.571 247.894 -219.404 200.288 -175.42C109.296 -91.3352 35.743 5.80655 -12.438 105.54C-69.7879 230.68 -87.7199 361.875 -64.2479 484.749C-41.5569 603.44 18.5921 710.315 109.715 793.824C146.155 827.218 187.412 856.673 232.347 881.356C301.136 918.581 375.425 941.182 453.14 948.525C528.389 955.631 603.571 948.198 676.633 926.426C749.773 904.636 816.954 869.603 876.298 822.322C937.467 773.577 987.597 713.84 1025.31 644.778C1102.99 488.049 1121.27 339.654 1079.64 203.723C1063.32 150.441 1037.61 98.591 1003.26 49.5887C975.473 9.94709 942.035 -27.8745 903.858 -62.8613C841.748 -119.781 787.962 -149.649 787.43 -149.956C782.997 -152.36 778.856 -155.311 775.135 -158.721C758.579 -173.893 751.499 -196.938 756.633 -218.864C762.391 -243.444 783.576 -262.513 809.329 -266.327C958.952 -288.446 1108.97 -275.852 1243.62 -229.964L1379.88 -378.783L1379.9 -378.799Z" fill="#D0FFE9"/>
<path d="M133.766 767.58C48.33 689.284 -8.04503 589.184 -29.289 478.063C-51.333 362.648 -34.376 239.066 19.76 120.691C66.101 24.9409 136.846 -68.3487 224.435 -149.28C270.498 -191.843 320.91 -230.692 374.283 -264.777C429.983 -300.348 489.115 -330.844 550.033 -355.391C682.276 -408.699 821.513 -434.064 963.888 -430.767C1066.99 -428.386 1171.96 -410.664 1275.87 -378.071C1285.24 -375.128 1292.38 -367.712 1294.92 -358.239C1297.47 -348.751 1295.02 -338.777 1288.42 -331.533L1244.97 -284.127C1237.72 -276.178 1226.39 -272.962 1216.11 -275.928C1086.35 -313.5 943.486 -322.283 802.892 -301.329C761.192 -295.12 728.267 -263.075 720.931 -221.635C715.073 -188.52 726.362 -155.193 751.13 -132.495C756.917 -127.192 763.349 -122.594 770.25 -118.803C772.46 -117.562 822.63 -89.0466 879.855 -36.6039C916.114 -3.37467 947.847 32.5226 974.158 70.0255C1006.36 115.974 1030.41 164.465 1045.64 214.16C1084.47 340.881 1067.03 480.191 993.855 628.194C993.813 628.306 993.739 628.419 993.68 628.516C958.301 693.054 911.354 748.922 854.139 794.505C798.369 838.939 735.235 871.86 666.492 892.341C597.826 912.804 527.188 919.787 456.506 913.128C383.643 906.249 313.947 885.053 249.382 850.131C206.945 826.802 168.06 799.038 133.767 767.611L133.766 767.58ZM1274.65 -358.803C1273.51 -359.855 1272.12 -360.644 1270.55 -361.142C1168.23 -393.238 1064.93 -410.702 963.497 -413.03C823.549 -416.244 686.684 -391.329 556.699 -338.937C496.818 -314.798 438.67 -284.817 383.873 -249.836C331.387 -216.325 281.815 -178.094 236.507 -136.256C150.536 -56.8282 81.159 34.6392 35.857 128.236C-16.655 243.061 -33.176 362.942 -11.826 474.704C8.68496 582.018 63.184 678.769 145.767 754.451C179.027 784.931 216.743 811.865 257.874 834.48C320.264 868.222 387.663 888.731 458.14 895.384C526.532 901.844 594.928 895.068 661.372 875.254C727.924 855.419 789.042 823.546 843.018 780.543C898.332 736.475 943.708 682.486 977.953 620.074C1048.98 476.319 1066.02 341.497 1028.6 219.294C1013.94 171.384 990.7 124.573 959.571 80.151C933.998 43.6861 903.141 8.77343 867.816 -23.5995C812.083 -74.6752 763.625 -102.195 761.607 -103.35C753.547 -107.751 745.96 -113.196 739.109 -119.475C709.832 -146.305 696.486 -185.679 703.403 -224.82C712.061 -273.825 750.997 -311.671 800.264 -319.028C943.343 -340.359 1088.85 -331.392 1221.04 -293.124C1224.88 -292.016 1229.11 -293.239 1231.84 -296.223L1275.27 -343.644C1277.81 -346.414 1278.7 -350.088 1277.72 -353.728C1277.18 -355.766 1276.11 -357.529 1274.63 -358.881L1274.65 -358.803Z" fill="#D0FFE9"/>
<path d="M169.82 728.239C92.9243 657.769 42.1993 567.794 23.1353 468.05C3.1973 363.764 18.7443 251.495 68.0563 143.418C111.533 53.7886 178.089 -33.8105 260.656 -110.085C304.389 -150.5 352.304 -187.416 403.012 -219.81C455.941 -253.608 512.118 -282.59 569.974 -305.902C613.353 -323.389 658.123 -337.884 703.024 -349.001C710.979 -350.968 718.829 -347.424 722.577 -340.159C726.324 -332.895 724.678 -324.451 718.49 -319.114C692.221 -296.471 674.403 -265.149 668.357 -230.94C659.305 -179.762 676.769 -128.261 715.061 -93.1689C723.896 -85.0719 733.708 -78.0404 744.221 -72.2355C746.303 -71.0516 792.378 -44.4193 843.784 2.69049C877.207 33.3209 906.357 66.2779 930.437 100.62C959.434 141.972 981.016 185.425 994.579 229.763C1029.19 342.725 1013.01 468.477 946.495 603.49C946.438 603.618 946.364 603.732 946.307 603.86C914.415 661.762 872.204 711.837 820.86 752.758C770.458 792.913 713.388 822.674 651.215 841.185C589.152 859.676 525.331 866 461.49 859.971C395.864 853.784 333.075 834.694 274.91 803.254C236.26 781.979 200.932 756.751 169.82 728.239ZM705.355 -331.272C661.906 -320.423 618.613 -306.355 576.625 -289.432C519.774 -266.526 464.582 -238.059 412.572 -204.836C362.736 -172.999 315.674 -136.75 272.712 -97.045C191.765 -22.2421 126.561 63.5197 84.1393 150.979C36.4503 255.507 21.3553 364.058 40.5983 464.691C58.9313 560.659 107.762 647.24 181.821 715.11C211.901 742.676 246.075 767.057 283.418 787.618C339.424 817.893 399.917 836.296 463.157 842.257C524.706 848.055 586.27 841.956 646.128 824.128C706.11 806.263 761.15 777.566 809.757 738.843C859.2 699.437 899.853 651.193 930.612 595.449C994.988 464.715 1010.79 343.417 977.558 234.974C964.53 192.423 943.761 150.65 915.854 110.84C892.512 77.5356 864.207 45.5647 831.751 15.8206C781.771 -29.9823 737.344 -55.6478 735.487 -56.7156C723.862 -63.1173 712.912 -70.9804 703.028 -80.0388C660.228 -119.262 640.722 -176.827 650.833 -234.032C657.472 -271.618 676.806 -306.044 705.34 -331.256L705.355 -331.272Z" fill="#D0FFE9"/>
<path d="M205.873 688.898C137.502 626.24 92.4432 546.404 75.5432 458.022C57.7262 364.849 71.8472 263.909 116.337 166.131C116.366 166.067 116.394 166.002 116.438 165.922C156.948 82.6217 219.331 0.728378 296.875 -70.9203C338.31 -109.19 383.68 -144.185 431.74 -174.874C481.899 -206.899 535.136 -234.353 589.945 -256.445C592.728 -257.574 595.513 -258.671 598.298 -259.768C602.909 -261.574 608.155 -260.717 611.976 -257.548C615.83 -254.317 617.592 -249.295 616.625 -244.39C616.355 -243.009 616.085 -241.628 615.846 -240.248C603.6 -171.006 627.223 -101.314 679.022 -53.8438C690.841 -43.0128 703.953 -33.56 718.015 -25.7697C722.552 -23.1506 762.306 0.373882 807.762 42.0306C838.333 70.0471 864.9 100.064 886.78 131.245C912.54 168 931.666 206.399 943.612 245.394C974.016 344.643 959.078 456.807 899.23 578.783C899.172 578.911 899.1 579.056 899.026 579.169C870.62 630.404 833.148 674.749 787.659 710.992C742.641 746.853 691.633 773.454 636.033 790.026C580.572 806.544 523.536 812.21 466.553 806.827C408.149 801.316 352.282 784.348 300.483 756.36C265.638 737.154 233.835 714.463 205.903 688.865L205.873 688.898ZM132.478 173.594C89.5562 267.984 75.9162 365.173 93.0232 454.679C109.175 539.269 152.355 615.725 217.891 675.784C244.774 700.421 275.424 722.297 308.963 740.789C358.57 767.582 412.172 783.861 468.175 789.162C522.882 794.33 577.63 788.89 630.9 773.017C684.295 757.108 733.289 731.586 776.511 697.126C820.114 662.381 856.029 619.867 883.3 570.759C941.021 453.047 955.571 345.353 926.56 250.607C915.165 213.413 896.868 176.71 872.166 141.466C851.039 111.338 825.301 82.2922 795.697 55.162C751.635 14.7822 713.4 -7.83278 709.201 -10.2935C694.089 -18.6833 679.841 -28.9364 666.973 -40.7288C611.387 -91.6693 585.652 -166.132 597.787 -240.452C597.369 -240.292 596.967 -240.118 596.549 -239.958C542.746 -218.271 490.508 -191.349 441.269 -159.899C394.096 -129.783 349.563 -95.4385 308.9 -57.8793C233.005 12.2339 171.989 92.2736 132.445 173.564L132.478 173.594Z" fill="#D0FFE9"/>
<path d="M241.927 649.557C182.095 594.726 142.672 525.03 127.967 448.009C112.287 365.932 124.967 276.339 164.633 188.858C164.677 188.777 164.706 188.713 164.75 188.633C202.395 111.453 260.604 35.2656 333.095 -31.7249C372.215 -67.8634 415.074 -100.907 460.486 -129.892C485.427 -145.82 511.468 -160.71 537.886 -174.168C542.859 -176.698 548.571 -176.711 553.543 -174.205C558.531 -171.685 561.911 -167.08 562.828 -161.564C572.359 -104.666 600.071 -53.8159 642.985 -14.4876C657.738 -0.967576 674.116 10.8449 691.6 20.5948C695.719 23.0119 731.318 44.3569 771.708 81.3718C799.427 106.774 823.442 133.849 843.077 161.886C865.63 194.045 882.287 227.405 892.581 261.027C918.748 346.471 905.119 444.966 852.03 553.773C851.885 554.063 851.696 554.433 851.506 554.772C826.629 599.228 793.94 637.761 754.367 669.293C714.717 700.875 669.772 724.316 620.757 738.901C571.884 753.465 521.68 758.455 471.54 753.733C420.389 748.897 371.428 734.036 326.013 709.547C294.94 692.411 266.679 672.241 241.927 649.557ZM180.775 196.322C142.69 280.397 130.462 366.272 145.447 444.666C159.436 517.894 196.964 584.195 253.959 636.427C277.679 658.164 304.771 677.504 334.538 693.926C377.76 717.221 424.442 731.41 473.222 736.002C521.071 740.526 569.019 735.759 615.702 721.842C662.509 707.888 705.44 685.527 743.31 655.36C781.073 625.276 812.249 588.493 836.018 546.036C887.098 441.329 900.399 347.208 875.591 266.206C865.847 234.385 850.003 202.705 828.524 172.073C809.628 145.106 786.457 118.985 759.705 94.469C720.659 58.686 686.531 38.2368 682.783 36.0082C664.266 25.6738 646.767 13.0447 630.997 -1.40674C585.296 -43.2888 555.709 -97.456 545.419 -158.036C519.71 -144.923 494.361 -130.425 470.078 -114.92C425.57 -86.4935 383.548 -54.0998 345.2 -18.6716C274.342 46.7998 217.5 121.134 180.821 196.304L180.775 196.322Z" fill="#D0FFE9"/>
<path d="M276.478 611.855C224.81 564.505 190.831 504.534 178.191 438.423C164.548 366.989 175.859 288.236 210.89 210.651C210.934 210.571 210.961 210.475 211.005 210.394C245.9 139.079 300.099 68.3538 367.765 5.83847C404.677 -28.2524 445.099 -59.4276 487.97 -86.791C493.711 -90.4563 499.58 -94.0956 505.421 -97.6394C509.745 -100.251 514.96 -100.841 519.767 -99.2406C524.59 -97.6254 528.462 -93.9859 530.367 -89.2849C547.518 -46.7559 574.487 -7.86546 608.386 23.2006C625.893 39.2443 645.295 53.2855 666.04 64.9076C666.105 64.9677 666.185 64.98 666.25 65.0401C669.757 67.1376 701.587 86.5068 737.109 119.06C762.091 141.954 783.639 166.225 801.174 191.222C820.639 218.983 834.945 247.504 843.646 275.987C865.794 348.308 853.358 433.752 806.708 529.972C806.519 530.342 806.331 530.713 806.126 531.068C784.575 569.163 756.43 602.21 722.469 629.264C687.96 656.751 648.815 677.153 606.124 689.873C563.558 702.556 519.888 706.9 476.306 702.789C432.092 698.611 389.75 685.775 350.478 664.653C323.032 649.483 298.149 631.746 276.446 611.857L276.478 611.855ZM227.047 218.098C193.567 292.279 182.707 367.315 195.671 435.08C207.579 497.414 239.68 554.006 288.495 598.742C309.166 617.685 332.896 634.606 359.019 649.047C396.1 669.005 436.177 681.153 478.006 685.105C519.312 689.001 560.694 684.883 601.07 672.846C641.57 660.772 678.701 641.449 711.399 615.379C743.565 589.757 770.227 558.426 790.652 522.316C835.341 430.178 847.432 349.093 826.642 281.213C818.46 254.534 804.999 227.691 786.607 201.457C769.826 177.513 749.139 154.211 725.108 132.189C691.209 101.123 661.07 82.6712 657.24 80.3675C635.35 68.0872 614.89 53.258 596.4 36.3129C560.698 3.59444 532.254 -37.3405 514.109 -82.108C508.558 -78.7501 502.997 -75.2815 497.561 -71.8184C455.595 -45.0137 415.993 -14.5038 379.853 18.8767C313.837 79.888 261.005 148.759 227.045 218.067L227.047 218.098Z" fill="#D0FFE9"/>
<path d="M313.387 579.873C256.031 527.31 222.576 455.545 219.187 377.825C215.798 300.106 242.879 225.701 295.442 168.345C347.96 111.038 419.727 77.6149 497.493 74.2081C575.274 70.8164 649.663 97.8822 706.954 150.385C825.354 258.891 833.404 443.513 724.899 561.913C616.393 680.313 431.771 688.364 313.371 579.858L313.387 579.873ZM694.952 163.514C641.154 114.211 571.306 88.8038 498.268 91.9887C425.229 95.1736 357.859 126.564 308.556 180.363C259.208 234.211 233.769 304.059 236.953 377.066C240.135 450.042 271.542 517.428 325.39 566.776C436.561 668.657 609.905 661.098 711.786 549.927C813.667 438.755 806.109 265.411 694.937 163.53L694.952 163.514Z" fill="#D0FFE9"/>
<path d="M349.44 540.532C302.133 497.178 274.781 437.972 272.425 373.836C270.085 309.715 293.043 248.661 337.083 201.922C379.604 156.807 437.391 130.477 499.827 127.738C562.247 125.016 622.123 146.231 668.41 187.474C716.32 230.204 744.536 289.026 747.787 353.107C751.023 417.205 728.928 478.567 685.574 525.875C596.943 622.588 446.154 629.163 349.44 540.532ZM658.899 202.855C658.129 202.149 657.358 201.443 656.571 200.722C613.772 162.584 558.387 142.952 500.601 145.487C442.83 148.007 389.347 172.371 350.03 214.089C309.284 257.332 288.032 313.827 290.21 373.155C292.372 432.499 317.69 487.278 361.457 527.387C450.941 609.393 590.452 603.31 672.459 513.825C712.568 470.059 733.022 413.285 730.011 353.977C727.078 295.736 701.845 242.182 658.914 202.838L658.899 202.855Z" fill="#D0FFE9"/>
<path d="M385.494 501.192C348.546 467.331 327.315 421.093 325.728 370.993C324.127 320.909 342.402 273.388 377.161 237.204C409.978 203.04 454.367 183.07 502.149 180.986C549.93 178.903 595.889 194.933 631.555 226.111C669.366 259.194 691.675 304.881 694.439 354.915C697.219 404.963 680.093 452.874 646.233 489.822C577.476 564.848 460.52 569.948 385.494 501.192ZM622.862 242.211C621.862 241.295 620.878 240.394 619.848 239.51C587.634 211.345 546.119 196.883 502.924 198.767C459.729 200.65 419.63 218.671 389.99 249.533C358.572 282.236 342.063 325.162 343.502 370.422C344.94 415.682 364.121 457.477 397.512 488.078C465.309 550.21 570.987 545.602 633.119 477.804C663.72 444.413 679.174 401.123 676.683 355.894C674.251 312.046 655.187 271.835 622.862 242.211Z" fill="#D0FFE9"/>
<path d="M421.547 461.85C394.877 437.409 379.761 404.013 379.033 367.818C378.289 331.64 392.04 297.646 417.771 272.037C465.267 224.785 542.75 221.391 594.179 264.361C621.992 287.588 638.684 320.317 641.091 356.391C643.5 392.497 631.365 427.097 606.923 453.767C558.056 507.09 474.902 510.716 421.579 461.849L421.547 461.85ZM586.825 281.567C585.497 280.35 584.139 279.166 582.752 278.015C538.297 240.894 471.353 243.814 430.298 284.663C408.051 306.8 396.161 336.196 396.816 367.468C397.457 398.757 410.518 427.615 433.581 448.752C479.676 490.994 551.552 487.86 593.795 441.765C614.931 418.702 625.431 388.816 623.345 357.59C621.387 328.2 608.479 301.412 586.841 281.582L586.825 281.567Z" fill="#D0FFE9"/>
<path d="M457.601 422.509C441.749 407.983 432.556 387.343 432.358 365.839C432.163 344.036 440.798 323.721 456.664 308.646C484.603 282.075 528.426 280.164 558.572 304.202C575.691 317.839 586.061 337.326 587.765 359.063C589.439 380.502 582.077 401.864 567.551 417.715C538.558 449.352 489.237 451.502 457.601 422.509ZM550.771 320.908C549.722 319.947 548.627 319.003 547.486 318.109C524.237 299.577 490.467 301.05 468.919 321.535C456.665 333.195 449.998 348.861 450.15 365.677C450.317 382.509 457.226 398.039 469.618 409.396C494.026 431.764 532.069 430.105 554.437 405.697C565.809 393.288 571.34 377.216 570.027 360.45C568.823 345.112 562.033 331.229 550.771 320.908Z" fill="#D0FFE9"/>
<path d="M493.862 384.323C490.239 381.004 489.994 375.38 493.314 371.758L514.345 348.809C517.665 345.186 523.288 344.941 526.911 348.261C530.533 351.581 530.779 357.204 527.459 360.827L506.428 383.776C503.108 387.398 497.485 387.643 493.862 384.323Z" fill="#D0FFE9"/>
<path d="M394.1 70.9581C392.953 69.9066 391.923 68.661 391.059 67.2666C386.759 60.3095 387.935 51.5556 393.94 45.9904L394.772 45.2145C424.044 18.1766 456.123 -6.56033 490.144 -28.2817C493.987 -30.7311 497.848 -33.1341 501.757 -35.5235C506.156 -38.2175 511.526 -38.8452 516.427 -37.2491C521.376 -35.6394 525.344 -31.9726 527.332 -27.165C536.106 -6.03507 547.844 13.7696 562.19 31.6822C566.583 37.156 567.194 44.6517 563.729 50.7356C560.295 56.7868 553.593 60.0848 546.69 59.1269C501.172 52.8497 454.44 58.0664 411.522 74.2271C405.345 76.558 398.706 75.1794 394.084 70.9431L394.1 70.9581ZM510.885 -20.3419C507.208 -18.0413 503.44 -15.6738 499.72 -13.2927C467.491 7.29614 437.005 30.6574 409.129 56.1709C453.116 40.3255 500.654 35.1839 547.074 41.2328C532.217 22.4297 520.061 1.69905 510.9 -20.3583L510.885 -20.3419Z" fill="#D0FFE9"/>
</g>
</g>
</g>
</g>
<defs>
<clipPath id="clip0_8_2">
<rect width="1318" height="376" fill="white"/>
</clipPath>
</defs>
</svg>
