<?xml version="1.0" encoding="UTF-8"?>
<svg id="P1" xmlns="http://www.w3.org/2000/svg" viewBox="0 0 32 32">
  <defs>
    <style>
      .cls-1 {
        fill: #d0ffe9;
        stroke-width: 0px;
      }
    </style>
  </defs>
  <path class="cls-1" d="m16.24,8c.53,0,1.87.02,3.29.07l.5.02c1.43.07,2.86.18,3.57.38.94.27,1.69,1.04,1.94,2.02.4,1.56.45,4.6.46,5.34v.15s0,.01,0,.01h0s0,.16,0,.16c0,.74-.06,3.78-.46,5.34-.25.99-1,1.76-1.94,2.02-.71.2-2.14.31-3.57.38l-.5.02c-1.42.06-2.76.07-3.29.07h-.23s-.01,0-.01,0h-.24c-1.13,0-5.86-.06-7.36-.48-.94-.27-1.69-1.04-1.94-2.02-.4-1.56-.45-4.6-.46-5.34v-.33c0-.74.06-3.78.46-5.34.25-.99,1-1.76,1.94-2.02,1.5-.42,6.23-.47,7.36-.48h.49Zm-2.24,4.5v7l6-3.5-6-3.5Z"/>
</svg>